<svg width="100" height="75" viewBox="0 0 100 75" fill="none" xmlns="http://www.w3.org/2000/svg">
<path d="M89.721 18.6914C89.7847 19.5116 89.7847 20.3321 89.7847 21.1523C89.7847 46.1717 69.1627 75 31.4722 75C19.8604 75 9.07367 71.8945 0 66.504C1.64981 66.6797 3.23595 66.7383 4.94923 66.7383C14.5303 66.7383 23.3503 63.75 30.3935 58.6525C21.3833 58.4765 13.8325 53.0275 11.2309 45.5272C12.5 45.703 13.769 45.8203 15.1016 45.8203C16.9417 45.8203 18.7819 45.5858 20.495 45.1758C11.1041 43.4178 4.06077 35.8007 4.06077 26.6015V26.3673C6.7891 27.7735 9.96197 28.6525 13.3247 28.7695C7.80433 25.371 4.1877 19.5702 4.1877 13.0077C4.1877 9.49213 5.20277 6.26947 6.97953 3.45695C17.0684 14.9413 32.2335 22.4412 49.2383 23.2616C48.9213 21.8554 48.731 20.3907 48.731 18.9258C48.731 8.496 57.868 0 69.226 0C75.127 0 80.4567 2.28515 84.2007 5.97655C88.8323 5.15628 93.274 3.57418 97.2083 1.40626C95.685 5.8009 92.4493 9.4923 88.198 11.8359C92.3223 11.4259 96.32 10.371 100 8.90633C97.2087 12.6562 93.7187 15.9959 89.721 18.6914Z" fill="#37C0EC"/>
</svg>
